<?xml version="1.0" encoding="UTF-8"?>
<svg id="Layer_1" xmlns="http://www.w3.org/2000/svg" version="1.1" viewBox="0 0 200 200">
  <!-- Generator: Adobe Illustrator 29.6.1, SVG Export Plug-In . SVG Version: 2.1.1 Build 9)  -->
  <defs>
    <style>
      .st0 {
        stroke-width: 4px;
      }

      .st0, .st1 {
        fill: #16d07c;
        stroke: #16d07c;
        stroke-miterlimit: 10;
      }

      .st1 {
        stroke-width: 2px;
      }
    </style>
  </defs>
  <path class="st0" d="M124.9,59.8H31c-3.1,0-5.7,2.5-5.7,5.7v124.8c0,3.1,2.5,5.7,5.7,5.7h93.9c3.1,0,5.7-2.5,5.7-5.7v-124.8c0-3.1-2.5-5.7-5.7-5.7ZM129.6,157.8c0,3.1-2.5,5.7-5.7,5.7H32c-3.1,0-5.7-2.5-5.7-5.7v-91.3c0-3.1,2.5-5.7,5.7-5.7h91.9c3.1,0,5.7,2.5,5.7,5.7v91.3Z"/>
  <g>
    <rect class="st1" x="137.3" y="9.1" width="9.9" height="71.8" transform="translate(45.7 158.8) rotate(-67.3)"/>
    <rect class="st1" x="72.2" y="18.6" width="48.3" height="18.6" transform="translate(33.5 106) rotate(-67.3)"/>
  </g>
  <polygon class="st0" points="68.4 46.7 72.5 44.8 72.7 51.2 68.4 46.7"/>
  <g>
    <polygon class="st0" points="86 83.3 83.5 83.3 86 87 89.7 83.3 86 83.3"/>
    <polygon class="st0" points="79.8 88.3 88.5 92 86 87 79.8 88.3"/>
  </g>
  <polygon class="st1" points="66.2 68.5 72.4 72.2 66.2 72.2 66.2 68.5"/>
  <polygon class="st1" points="84.8 69.7 86 72.2 88.5 72.2 84.8 69.7"/>
</svg>