<?xml version="1.0" encoding="UTF-8"?>
<svg id="Layer_1" xmlns="http://www.w3.org/2000/svg" version="1.1" viewBox="0 0 358.8 197.3">
  <!-- Generator: Adobe Illustrator 29.6.1, SVG Export Plug-In . SVG Version: 2.1.1 Build 9)  -->
  <defs>
    <style>
      .st0 {
        stroke-width: 4px;
      }

      .st0, .st1 {
        stroke-miterlimit: 10;
      }

      .st0, .st1, .st2 {
        stroke: #16d07c;
      }

      .st0, .st1, .st2, .st3 {
        fill: #16d07c;
      }

      .st1 {
        stroke-width: 2px;
      }

      .st2 {
        stroke-miterlimit: 10;
        stroke-width: 2px;
      }
    </style>
  </defs>
  <path class="st0" d="M101.6,59.1H7.7c-3.1,0-5.7,2.5-5.7,5.7v124.8c0,3.1,2.5,5.7,5.7,5.7h93.9c3.1,0,5.7-2.5,5.7-5.7v-124.8c0-3.1-2.5-5.7-5.7-5.7ZM106.3,157.1c0,3.1-2.5,5.7-5.7,5.7H8.7c-3.1,0-5.7-2.5-5.7-5.7v-91.3c0-3.1,2.5-5.7,5.7-5.7h91.9c3.1,0,5.7,2.5,5.7,5.7v91.3Z"/>
  <g>
    <rect class="st2" x="113.9" y="8.3" width="9.9" height="71.8" transform="translate(32.2 136.8) rotate(-67.3)"/>
    <rect class="st2" x="49" y="17.9" width="48.3" height="18.6" transform="translate(19.8 84.1) rotate(-67.3)"/>
  </g>
  <polygon class="st0" points="45.1 46 49.2 44.1 49.4 50.5 45.1 46"/>
  <g>
    <polygon class="st0" points="62.7 82.6 60.2 82.6 62.7 86.3 66.4 82.6 62.7 82.6"/>
    <polygon class="st0" points="56.5 87.6 65.2 91.3 62.7 86.3 56.5 87.6"/>
  </g>
  <polygon class="st1" points="42.9 67.8 49.1 71.5 42.9 71.5 42.9 67.8"/>
  <polygon class="st1" points="61.5 69 62.7 71.5 65.2 71.5 61.5 69"/>
  <g>
    <path class="st3" d="M195.2,71.5c-2.8,0-5.3-.4-7.6-1.2-2.3-.8-4.2-1.9-5.8-3.4s-2.8-3.3-3.6-5.4l8-2.9c.4,1.2,1,2.2,1.8,3.1.9.9,1.9,1.6,3.2,2,1.3.5,2.7.7,4.2.7s2.5-.2,3.7-.5c1.1-.3,2.1-.8,2.8-1.6.7-.7,1.1-1.7,1.1-2.9s-.6-2.5-1.7-3.2c-1.1-.7-2.9-1.4-5.4-1.9l-5-1c-2.5-.5-4.6-1.3-6.3-2.2-1.7-1-3.1-2.2-4-3.7-.9-1.5-1.4-3.2-1.4-5.3s.4-3.6,1.3-5.1c.9-1.5,2-2.8,3.5-3.8,1.5-1,3.2-1.8,5.2-2.4,2-.6,4.1-.8,6.3-.8s4.2.3,6.2.9c2,.6,3.8,1.5,5.3,2.7,1.6,1.2,2.8,2.9,3.6,4.9l-8,2.9c-.4-.9-.9-1.7-1.7-2.3-.8-.6-1.7-1.1-2.7-1.4-1-.3-2.2-.5-3.5-.5s-2.5.2-3.5.5c-1,.3-1.9.8-2.5,1.5-.6.7-.9,1.5-.9,2.4s.4,2,1.3,2.7c.9.7,2.1,1.2,3.6,1.6l5.5,1.1c2.6.6,4.8,1.3,6.9,2.1,2,.8,3.6,2,4.8,3.5,1.2,1.5,1.8,3.5,1.8,6.1s-.8,5.2-2.3,7.1c-1.6,1.9-3.6,3.4-6.1,4.4-2.5,1-5.2,1.5-8.1,1.5Z"/>
    <path class="st3" d="M230.6,71.5c-2,0-3.9-.3-5.8-.9-1.9-.6-3.5-1.6-5-2.9-1.5-1.3-2.6-2.9-3.5-4.9-.9-2-1.3-4.3-1.3-7s.4-5.1,1.3-7c.9-2,2-3.6,3.5-4.9,1.5-1.3,3.1-2.2,5-2.9,1.9-.6,3.8-.9,5.8-.9s3.9.3,5.8.9c1.8.6,3.5,1.6,5,2.9,1.5,1.3,2.6,2.9,3.5,4.9.9,2,1.3,4.3,1.3,7s-.4,5-1.3,7c-.9,2-2,3.6-3.5,4.9-1.5,1.3-3.1,2.2-5,2.9-1.8.6-3.8.9-5.8.9ZM230.6,64.9c1.2,0,2.4-.3,3.5-.9,1.1-.6,1.9-1.5,2.5-2.9.6-1.3.9-3.1.9-5.3s-.3-4-.9-5.3c-.6-1.3-1.5-2.3-2.5-2.9-1.1-.6-2.2-.9-3.5-.9s-2.4.3-3.5.9c-1.1.6-1.9,1.5-2.5,2.9-.6,1.3-1,3.1-1,5.3s.3,4,1,5.3c.6,1.3,1.5,2.3,2.5,2.9,1.1.6,2.2.9,3.5.9Z"/>
    <path class="st3" d="M264.7,71.5c-3.2,0-5.9-.7-8.1-2-2.2-1.3-3.9-3.2-5.1-5.6-1.2-2.4-1.8-5.1-1.8-8.2s.6-5.8,1.9-8.1c1.3-2.3,3-4.2,5.3-5.5,2.3-1.3,4.9-2,7.9-2s3.4.3,5.1.8c1.7.5,3.2,1.3,4.6,2.4,1.4,1.1,2.5,2.6,3.4,4.4l-7.1,2.5c-.5-1.2-1.2-2.1-2.2-2.7-1-.6-2.1-.8-3.4-.8s-2.3.3-3.3.9c-1.1.6-1.9,1.5-2.5,2.8-.6,1.3-1,3.1-1,5.3s.3,4,1,5.3c.7,1.3,1.5,2.3,2.5,2.9,1,.6,2.1.9,3.3.9s2.5-.3,3.5-.8c.9-.5,1.7-1.3,2.2-2.2l7,2.5c-1,1.7-2.2,3.1-3.6,4.1-1.4,1.1-3,1.8-4.6,2.3-1.6.5-3.3.7-4.9.7Z"/>
    <path class="st3" d="M285.1,70.8v-23.4h-4.8v-6.4h13.2v29.8h-8.4ZM288.8,36c-1.4,0-2.6-.5-3.6-1.5-1-1-1.5-2.2-1.5-3.6s.5-2.6,1.5-3.6c1-1,2.2-1.5,3.6-1.5s2.6.5,3.6,1.5c1,1,1.5,2.2,1.5,3.6s-.5,2.6-1.5,3.6c-1,1-2.2,1.5-3.6,1.5Z"/>
    <path class="st3" d="M308.8,71.5c-1.9,0-3.6-.4-5.2-1.1-1.6-.7-2.8-1.7-3.8-3-.9-1.3-1.4-2.9-1.4-4.6s.8-4.3,2.5-5.7,4-2.5,7.1-3.3c3-.8,6.6-1.3,10.6-1.7v-.9c0-1.8-.5-3.1-1.4-3.9-1-.9-2.3-1.3-4.1-1.3s-2.5.3-3.5,1c-1,.6-1.6,1.6-2,2.8l-7.1-2.5c.9-2,2.5-3.7,4.8-5,2.3-1.3,5-2,8.2-2s7.5,1,9.8,2.9c2.3,1.9,3.4,5.1,3.4,9.5v6.6c0,1.4,0,2.8.1,4.2,0,1.5.2,2.8.4,4.1.2,1.3.3,2.4.5,3.2h-7.7l-1.1-3.7c-1,1.5-2.4,2.6-4.1,3.3-1.7.7-3.7,1.1-5.9,1.1ZM311.8,65.7c1.3,0,2.4-.2,3.5-.7,1-.4,1.9-1.2,2.5-2.2.6-1,.9-2.5.9-4.3v-1.3c-3.6.3-6.4.8-8.4,1.5-2,.7-3,1.9-3,3.5s.4,1.8,1.3,2.5c.8.6,1.9,1,3.3,1Z"/>
    <path class="st3" d="M342.7,70.8c-2.3,0-4.2-.2-5.5-.6s-2.4-1.2-2.9-2.4c-.6-1.2-.9-2.9-.9-5.1V28.3h8.4v32.3c0,1.4.3,2.2.8,2.7.5.4,1.5.6,3.1.6h2.5v6.9h-5.3Z"/>
    <path class="st3" d="M180.3,142.8v-40.1h28.2v7.7h-19.4v9.4h19.2v7.7h-19.2v15.3h-8.8Z"/>
    <path class="st3" d="M221.8,143.5c-1.9,0-3.6-.4-5.2-1-1.6-.7-2.8-1.7-3.8-3-.9-1.3-1.4-2.8-1.4-4.7s.8-4.3,2.5-5.7c1.7-1.4,4-2.6,7.1-3.3,3-.8,6.6-1.3,10.6-1.7v-.9c0-1.8-.5-3.1-1.4-3.9-1-.9-2.3-1.3-4.1-1.3s-2.5.3-3.5,1c-1,.6-1.6,1.6-2,2.8l-7.1-2.5c.9-2,2.5-3.7,4.8-5,2.3-1.3,5-2,8.2-2s7.5,1,9.8,2.8c2.3,1.9,3.4,5.1,3.4,9.5v6.6c0,1.4,0,2.8.1,4.2,0,1.5.2,2.8.4,4.1.2,1.3.3,2.4.5,3.2h-7.7l-1.1-3.7c-1,1.5-2.4,2.6-4.1,3.3-1.7.7-3.7,1-5.9,1ZM224.8,137.7c1.3,0,2.4-.2,3.5-.7,1-.4,1.9-1.2,2.5-2.2.6-1,.9-2.5.9-4.3v-1.3c-3.6.3-6.4.8-8.4,1.5-2,.7-3,1.9-3,3.5s.4,1.8,1.3,2.5,1.9,1,3.3,1Z"/>
    <path class="st3" d="M246.6,142.8v-42.5h8.3v24.4l10.3-11.7h9.9l-11.5,12.4,12.5,17.3h-9.9l-8.2-11.4-3.2,3.4v8h-8.3Z"/>
    <path class="st3" d="M292.3,143.5c-3.2,0-6-.6-8.4-1.9-2.4-1.3-4.3-3.1-5.6-5.5-1.3-2.4-2-5.1-2-8.3s.7-5.9,2.2-8.2c1.4-2.3,3.3-4.1,5.7-5.4,2.4-1.3,5-1.9,7.8-1.9s4.6.5,6.5,1.3c1.9.9,3.6,2.2,4.9,3.8,1.3,1.6,2.3,3.5,2.9,5.7s.8,4.5.7,7.1h-22.4c.2,1.2.6,2.3,1.1,3.2.5.9,1.1,1.6,1.8,2.1.7.5,1.4.9,2.2,1.2.8.2,1.6.4,2.4.4,1.4,0,2.7-.2,3.7-.7,1-.4,1.9-1,2.5-1.7l6.8,2.4c-1.4,2.2-3.3,3.8-5.6,4.9s-4.7,1.6-7.2,1.6ZM284.5,124.8h14.6c0-1.3-.4-2.4-1-3.3s-1.4-1.7-2.4-2.2c-1-.5-2.2-.8-3.5-.8s-2.3.2-3.3.6-2,1.1-2.7,2c-.8.9-1.3,2.1-1.6,3.7Z"/>
    <path class="st3" d="M314.4,142.8v-23.4h-4.8v-6.4h13.2v29.8h-8.4ZM318.2,108c-1.4,0-2.6-.5-3.6-1.5-1-1-1.5-2.2-1.5-3.6s.5-2.6,1.5-3.6c1-1,2.2-1.5,3.6-1.5s2.6.5,3.6,1.5c1,1,1.5,2.2,1.5,3.6s-.5,2.6-1.5,3.6c-1,1-2.2,1.5-3.6,1.5Z"/>
    <path class="st3" d="M338.1,143.5c-1.9,0-3.6-.4-5.2-1-1.6-.7-2.8-1.7-3.8-3-.9-1.3-1.4-2.8-1.4-4.7s.8-4.3,2.5-5.7c1.7-1.4,4-2.6,7.1-3.3,3-.8,6.6-1.3,10.6-1.7v-.9c0-1.8-.5-3.1-1.4-3.9-1-.9-2.3-1.3-4.1-1.3s-2.5.3-3.5,1c-1,.6-1.6,1.6-2,2.8l-7.1-2.5c.9-2,2.5-3.7,4.8-5,2.3-1.3,5-2,8.2-2s7.5,1,9.8,2.8c2.3,1.9,3.4,5.1,3.4,9.5v6.6c0,1.4,0,2.8.1,4.2,0,1.5.2,2.8.4,4.1.2,1.3.3,2.4.5,3.2h-7.7l-1.1-3.7c-1,1.5-2.4,2.6-4.1,3.3-1.7.7-3.7,1-5.9,1ZM341.1,137.7c1.3,0,2.4-.2,3.5-.7,1-.4,1.9-1.2,2.5-2.2.6-1,.9-2.5.9-4.3v-1.3c-3.6.3-6.4.8-8.4,1.5-2,.7-3,1.9-3,3.5s.4,1.8,1.3,2.5,1.9,1,3.3,1Z"/>
  </g>
</svg>